<svg width="381" height="64" viewBox="0 0 381 64" fill="none" xmlns="http://www.w3.org/2000/svg">
<path d="M134 15H132.88C132.805 14.6587 132.736 14.2853 132.672 13.88C132.064 14.7333 131.221 15.16 130.144 15.16C129.12 15.16 128.309 14.7813 127.712 14.024C127.125 13.2667 126.832 12.2267 126.832 10.904V10.728C126.832 9.48 127.12 8.49333 127.696 7.768C128.283 7.032 129.099 6.664 130.144 6.664C131.157 6.664 131.941 7.064 132.496 7.864V3.48H134V15ZM130.416 7.864C129.701 7.864 129.173 8.11467 128.832 8.616C128.501 9.10667 128.336 9.87467 128.336 10.92C128.336 11.9653 128.507 12.7333 128.848 13.224C129.189 13.7147 129.712 13.96 130.416 13.96C131.813 13.96 132.512 12.9467 132.512 10.92C132.512 9.87467 132.336 9.10667 131.984 8.616C131.632 8.11467 131.109 7.864 130.416 7.864ZM139.936 6.664C140.608 6.664 141.2 6.808 141.712 7.096C142.235 7.37333 142.64 7.77333 142.928 8.296C143.216 8.81867 143.36 9.42667 143.36 10.12V11.256H137.648C137.669 12.12 137.872 12.7867 138.256 13.256C138.64 13.7253 139.211 13.96 139.968 13.96C140.64 13.96 141.136 13.7627 141.456 13.368C141.776 12.9733 141.936 12.504 141.936 11.96H143.36C143.36 12.6 143.211 13.16 142.912 13.64C142.624 14.12 142.219 14.4933 141.696 14.76C141.184 15.0267 140.597 15.16 139.936 15.16H139.872C138.72 15.16 137.808 14.792 137.136 14.056C136.475 13.3093 136.144 12.3173 136.144 11.08V10.76C136.144 9.94933 136.293 9.23467 136.592 8.616C136.891 7.99733 137.317 7.51733 137.872 7.176C138.427 6.83467 139.077 6.664 139.824 6.664H139.936ZM139.856 7.864C139.248 7.864 138.752 8.05067 138.368 8.424C137.995 8.79733 137.765 9.352 137.68 10.088H141.872V9.896C141.872 9.288 141.685 8.79733 141.312 8.424C140.949 8.05067 140.464 7.864 139.856 7.864ZM148.667 6.664C149.275 6.664 149.813 6.76 150.283 6.952C150.763 7.144 151.131 7.41067 151.387 7.752C151.653 8.09333 151.787 8.472 151.787 8.888L151.771 9.176H150.283V9.032C150.283 8.25333 149.68 7.864 148.475 7.864C147.28 7.864 146.683 8.22133 146.683 8.936C146.683 9.26667 146.853 9.512 147.195 9.672C147.536 9.82133 148.059 9.96533 148.763 10.104C149.435 10.2427 149.984 10.3867 150.411 10.536C150.848 10.6853 151.216 10.92 151.515 11.24C151.824 11.56 151.979 11.992 151.979 12.536C151.979 13.4107 151.68 14.0667 151.083 14.504C150.485 14.9413 149.627 15.16 148.507 15.16H148.267C147.595 15.16 147.008 15.0587 146.507 14.856C146.005 14.6427 145.616 14.36 145.339 14.008C145.072 13.6453 144.944 13.24 144.955 12.792V12.44H146.443V12.6C146.443 13.5067 147.205 13.96 148.731 13.96C149.179 13.96 149.579 13.8587 149.931 13.656C150.293 13.4533 150.475 13.176 150.475 12.824C150.475 12.5253 150.373 12.2907 150.171 12.12C149.979 11.9493 149.739 11.8213 149.451 11.736C149.163 11.6507 148.763 11.5653 148.251 11.48C147.589 11.352 147.056 11.224 146.651 11.096C146.245 10.9573 145.899 10.728 145.611 10.408C145.323 10.088 145.179 9.65067 145.179 9.096C145.179 8.33867 145.477 7.74667 146.075 7.32C146.672 6.88267 147.488 6.664 148.523 6.664H148.667ZM157.374 6.664C158.046 6.664 158.638 6.808 159.15 7.096C159.672 7.37333 160.078 7.77333 160.366 8.296C160.654 8.81867 160.798 9.42667 160.798 10.12V11.256H155.086C155.107 12.12 155.31 12.7867 155.694 13.256C156.078 13.7253 156.648 13.96 157.406 13.96C158.078 13.96 158.574 13.7627 158.894 13.368C159.214 12.9733 159.374 12.504 159.374 11.96H160.798C160.798 12.6 160.648 13.16 160.35 13.64C160.062 14.12 159.656 14.4933 159.134 14.76C158.622 15.0267 158.035 15.16 157.374 15.16H157.31C156.158 15.16 155.246 14.792 154.574 14.056C153.912 13.3093 153.582 12.3173 153.582 11.08V10.76C153.582 9.94933 153.731 9.23467 154.03 8.616C154.328 7.99733 154.755 7.51733 155.31 7.176C155.864 6.83467 156.515 6.664 157.262 6.664H157.374ZM157.294 7.864C156.686 7.864 156.19 8.05067 155.806 8.424C155.432 8.79733 155.203 9.352 155.118 10.088H159.31V9.896C159.31 9.288 159.123 8.79733 158.75 8.424C158.387 8.05067 157.902 7.864 157.294 7.864ZM167.016 6.664C167.912 6.664 168.616 6.904 169.128 7.384C169.64 7.864 169.896 8.568 169.896 9.496V15H168.392V9.768C168.392 8.49867 167.816 7.864 166.664 7.864C166.28 7.864 165.923 7.96533 165.592 8.168C165.262 8.37067 164.995 8.648 164.792 9C164.59 9.34133 164.488 9.72 164.488 10.136V15H162.984V6.824H164.072L164.28 8.024C164.963 7.11733 165.875 6.664 167.016 6.664ZM179.062 6.824L175.959 15H174.359L171.255 6.824H172.855L175.191 13.08H175.255L177.591 6.824H179.062ZM183.842 6.664C184.983 6.664 185.895 7.016 186.578 7.72C187.261 8.424 187.602 9.38933 187.602 10.616V11.208C187.602 12.4347 187.266 13.4 186.594 14.104C185.922 14.808 185.005 15.16 183.842 15.16C182.679 15.16 181.762 14.808 181.09 14.104C180.418 13.4 180.082 12.4347 180.082 11.208V10.616C180.082 9.38933 180.423 8.424 181.106 7.72C181.789 7.016 182.701 6.664 183.842 6.664ZM183.842 7.864C183.127 7.864 182.573 8.10933 182.178 8.6C181.783 9.09067 181.586 9.81067 181.586 10.76V11.064C181.586 11.992 181.778 12.7067 182.162 13.208C182.557 13.7093 183.117 13.96 183.842 13.96C184.546 13.96 185.095 13.7147 185.49 13.224C185.895 12.7227 186.098 12.0027 186.098 11.064V10.76C186.098 9.832 185.901 9.11733 185.506 8.616C185.122 8.11467 184.567 7.864 183.842 7.864ZM191.334 3.48V15H189.83V3.48H191.334ZM200.719 6.824L197.615 15H196.015L192.911 6.824H194.511L196.847 13.08H196.911L199.247 6.824H200.719ZM203.77 3.48V4.872H202.202V3.48H203.77ZM203.738 6.824V15H202.234V6.824H203.738ZM213.062 15H211.943C211.868 14.6587 211.799 14.2853 211.735 13.88C211.127 14.7333 210.284 15.16 209.207 15.16C208.183 15.16 207.372 14.7813 206.775 14.024C206.188 13.2667 205.895 12.2267 205.895 10.904V10.728C205.895 9.48 206.183 8.49333 206.759 7.768C207.345 7.032 208.161 6.664 209.207 6.664C210.22 6.664 211.004 7.064 211.559 7.864V3.48H213.062V15ZM209.479 7.864C208.764 7.864 208.236 8.11467 207.895 8.616C207.564 9.10667 207.399 9.87467 207.399 10.92C207.399 11.9653 207.569 12.7333 207.911 13.224C208.252 13.7147 208.775 13.96 209.479 13.96C210.876 13.96 211.575 12.9467 211.575 10.92C211.575 9.87467 211.399 9.10667 211.047 8.616C210.695 8.11467 210.172 7.864 209.479 7.864ZM218.983 6.664C220.124 6.664 221.036 7.016 221.719 7.72C222.401 8.424 222.743 9.38933 222.743 10.616V11.208C222.743 12.4347 222.407 13.4 221.735 14.104C221.063 14.808 220.145 15.16 218.983 15.16C217.82 15.16 216.903 14.808 216.231 14.104C215.559 13.4 215.223 12.4347 215.223 11.208V10.616C215.223 9.38933 215.564 8.424 216.247 7.72C216.929 7.016 217.841 6.664 218.983 6.664ZM218.983 7.864C218.268 7.864 217.713 8.10933 217.319 8.6C216.924 9.09067 216.727 9.81067 216.727 10.76V11.064C216.727 11.992 216.919 12.7067 217.303 13.208C217.697 13.7093 218.257 13.96 218.983 13.96C219.687 13.96 220.236 13.7147 220.631 13.224C221.036 12.7227 221.239 12.0027 221.239 11.064V10.76C221.239 9.832 221.041 9.11733 220.647 8.616C220.263 8.11467 219.708 7.864 218.983 7.864ZM232.668 6.664C233.703 6.664 234.514 7.04267 235.1 7.8C235.687 8.55733 235.98 9.59733 235.98 10.92V11.096C235.98 12.3547 235.687 13.3467 235.1 14.072C234.524 14.7973 233.714 15.16 232.668 15.16C231.666 15.16 230.882 14.76 230.316 13.96V17.896H228.812V6.824H229.932C230.007 7.16533 230.076 7.53867 230.14 7.944C230.748 7.09067 231.591 6.664 232.668 6.664ZM232.396 7.864C231.671 7.864 231.138 8.11467 230.796 8.616C230.466 9.11733 230.3 9.88 230.3 10.904C230.3 11.9493 230.471 12.7227 230.812 13.224C231.164 13.7147 231.692 13.96 232.396 13.96C233.1 13.96 233.623 13.7093 233.964 13.208C234.306 12.7067 234.476 11.9387 234.476 10.904C234.476 9.85867 234.3 9.09067 233.948 8.6C233.607 8.10933 233.09 7.864 232.396 7.864ZM241.405 6.664C242.546 6.664 243.458 7.016 244.141 7.72C244.823 8.424 245.165 9.38933 245.165 10.616V11.208C245.165 12.4347 244.829 13.4 244.157 14.104C243.485 14.808 242.567 15.16 241.405 15.16C240.242 15.16 239.325 14.808 238.653 14.104C237.981 13.4 237.645 12.4347 237.645 11.208V10.616C237.645 9.38933 237.986 8.424 238.669 7.72C239.351 7.016 240.263 6.664 241.405 6.664ZM241.405 7.864C240.69 7.864 240.135 8.10933 239.741 8.6C239.346 9.09067 239.149 9.81067 239.149 10.76V11.064C239.149 11.992 239.341 12.7067 239.725 13.208C240.119 13.7093 240.679 13.96 241.405 13.96C242.109 13.96 242.658 13.7147 243.053 13.224C243.458 12.7227 243.661 12.0027 243.661 11.064V10.76C243.661 9.832 243.463 9.11733 243.069 8.616C242.685 8.11467 242.13 7.864 241.405 7.864ZM251.008 6.664C251.765 6.664 252.357 6.90933 252.784 7.4C253.211 7.88 253.424 8.488 253.424 9.224L253.376 9.832H252.048V9.48C252.048 9.16 251.968 8.87733 251.808 8.632C251.648 8.38667 251.445 8.2 251.2 8.072C250.955 7.93333 250.709 7.864 250.464 7.864C249.952 7.864 249.552 8.06667 249.264 8.472C248.976 8.87733 248.832 9.42667 248.832 10.12V15H247.328V6.824H248.4L248.624 8.04C248.688 7.82667 248.832 7.61333 249.056 7.4C249.28 7.18667 249.557 7.01067 249.888 6.872C250.229 6.73333 250.603 6.664 251.008 6.664Z" fill="#F7F7F7"/>
<path d="M3.32422 46.5515V41.9265L21.8242 33.7802V39.1016L9.15803 44.1864L9.32884 43.9105V44.5675L9.15803 44.2915L21.8242 49.3764V54.6978L3.32422 46.5515ZM46.9727 46.5515L28.4727 54.6978V49.3764L41.1389 44.2915L40.968 44.5675V43.9105L41.1389 44.1864L28.4727 39.1016V33.7802L46.9727 41.9265V46.5515ZM318.98 46.5515V41.9265L337.48 33.7802V39.1016L324.814 44.1864L324.985 43.9105V44.5675L324.814 44.2915L337.48 49.3764V54.6978L318.98 46.5515ZM354.759 26.8295L346.087 59.0469H341.265L349.936 26.8295H354.759ZM377.046 46.5515L358.546 54.6978V49.3764L371.212 44.2915L371.041 44.5675V43.9105L371.212 44.1864L358.546 39.1016V33.7802L377.046 41.9265V46.5515Z" fill="#F7F7F7"/>
<path d="M71.9733 28.0909H77.5969V46.8537C77.5969 48.5881 77.2071 50.0947 76.4275 51.3736C75.6566 52.6525 74.5836 53.6379 73.2084 54.3299C71.8331 55.0219 70.2345 55.3679 68.4126 55.3679C66.7921 55.3679 65.3205 55.0832 63.9978 54.5138C62.6839 53.9357 61.6415 53.0598 60.8706 51.886C60.0998 50.7035 59.7188 49.2187 59.7275 47.4318H65.3905C65.4081 48.1413 65.5526 48.7501 65.8241 49.2582C66.1044 49.7575 66.4855 50.1429 66.9672 50.4144C67.4578 50.6772 68.0359 50.8086 68.7016 50.8086C69.4024 50.8086 69.9936 50.6597 70.4754 50.3619C70.9659 50.0553 71.3382 49.6085 71.5922 49.0217C71.8463 48.4348 71.9733 47.7121 71.9733 46.8537V28.0909ZM98.9218 28.0909H104.611V45.5661C104.611 47.5282 104.142 49.245 103.205 50.7166C102.277 52.1882 100.976 53.3357 99.3028 54.1591C97.6298 54.9737 95.6808 55.381 93.4559 55.381C91.2222 55.381 89.2689 54.9737 87.5958 54.1591C85.9227 53.3357 84.622 52.1882 83.6934 50.7166C82.7649 49.245 82.3007 47.5282 82.3007 45.5661V28.0909H87.99V45.0799C87.99 46.1048 88.2133 47.0157 88.6601 47.8129C89.1156 48.61 89.755 49.2363 90.5784 49.6918C91.4018 50.1473 92.3609 50.375 93.4559 50.375C94.5596 50.375 95.5187 50.1473 96.3334 49.6918C97.1568 49.2363 97.7918 48.61 98.2385 47.8129C98.694 47.0157 98.9218 46.1048 98.9218 45.0799V28.0909ZM91.4456 25.4893L94.2311 19.511H99.4079L95.4005 25.4893H91.4456ZM109.292 55V28.0909H114.981V50.3093H126.517V55H109.292ZM135.974 28.0909V55H130.285V28.0909H135.974ZM145.293 55H139.197L148.486 28.0909H155.818L165.094 55H158.998L152.257 34.2401H152.047L145.293 55ZM144.912 44.4229H159.313V48.864H144.912V44.4229ZM191.494 35.8299C191.389 34.77 190.938 33.9466 190.141 33.3597C189.344 32.7728 188.262 32.4794 186.895 32.4794C185.967 32.4794 185.183 32.6108 184.543 32.8736C183.904 33.1276 183.413 33.4824 183.072 33.9379C182.739 34.3933 182.573 34.9102 182.573 35.4883C182.555 35.9701 182.656 36.3905 182.875 36.7496C183.102 37.1088 183.413 37.4197 183.808 37.6825C184.202 37.9366 184.657 38.1599 185.174 38.3526C185.691 38.5366 186.243 38.6942 186.83 38.8256L189.247 39.4038C190.421 39.6665 191.498 40.0169 192.479 40.4549C193.461 40.8929 194.31 41.4316 195.028 42.071C195.747 42.7105 196.303 43.4638 196.697 44.331C197.1 45.1982 197.306 46.1924 197.315 47.3136C197.306 48.9603 196.886 50.3881 196.053 51.5969C195.23 52.797 194.039 53.7299 192.479 54.3956C190.929 55.0526 189.059 55.381 186.869 55.381C184.697 55.381 182.805 55.0482 181.193 54.3825C179.59 53.7167 178.337 52.7313 177.435 51.4261C176.542 50.1122 176.073 48.4873 176.029 46.5515H181.535C181.596 47.4537 181.854 48.207 182.31 48.8114C182.774 49.4071 183.392 49.8582 184.162 50.1648C184.942 50.4626 185.822 50.6115 186.803 50.6115C187.767 50.6115 188.603 50.4714 189.313 50.1911C190.031 49.9107 190.587 49.521 190.982 49.0217C191.376 48.5224 191.573 47.9486 191.573 47.3004C191.573 46.696 191.393 46.188 191.034 45.7763C190.684 45.3646 190.167 45.0142 189.484 44.7251C188.809 44.4361 187.982 44.1733 187 43.9368L184.07 43.201C181.802 42.6491 180.01 41.7863 178.696 40.6126C177.383 39.4388 176.73 37.8577 176.739 35.8693C176.73 34.2401 177.164 32.8166 178.04 31.5991C178.924 30.3815 180.137 29.4311 181.679 28.7479C183.221 28.0646 184.973 27.723 186.935 27.723C188.932 27.723 190.675 28.0646 192.164 28.7479C193.662 29.4311 194.827 30.3815 195.659 31.5991C196.491 32.8166 196.921 34.2269 196.947 35.8299H191.494ZM225.869 41.5455C225.869 44.4799 225.313 46.9763 224.201 49.0348C223.097 51.0933 221.59 52.6656 219.681 53.7518C217.78 54.8292 215.643 55.3679 213.269 55.3679C210.878 55.3679 208.732 54.8248 206.831 53.7386C204.93 52.6525 203.428 51.0801 202.324 49.0217C201.22 46.9632 200.669 44.4711 200.669 41.5455C200.669 38.611 201.22 36.1146 202.324 34.0561C203.428 31.9976 204.93 30.4297 206.831 29.3523C208.732 28.2661 210.878 27.723 213.269 27.723C215.643 27.723 217.78 28.2661 219.681 29.3523C221.59 30.4297 223.097 31.9976 224.201 34.0561C225.313 36.1146 225.869 38.611 225.869 41.5455ZM220.101 41.5455C220.101 39.6446 219.817 38.0417 219.247 36.7365C218.687 35.4313 217.894 34.4415 216.869 33.767C215.844 33.0926 214.644 32.7553 213.269 32.7553C211.894 32.7553 210.694 33.0926 209.669 33.767C208.644 34.4415 207.847 35.4313 207.278 36.7365C206.717 38.0417 206.437 39.6446 206.437 41.5455C206.437 43.4463 206.717 45.0492 207.278 46.3544C207.847 47.6596 208.644 48.6494 209.669 49.3239C210.694 49.9983 211.894 50.3356 213.269 50.3356C214.644 50.3356 215.844 49.9983 216.869 49.3239C217.894 48.6494 218.687 47.6596 219.247 46.3544C219.817 45.0492 220.101 43.4463 220.101 41.5455ZM246.705 28.0909H252.394V45.5661C252.394 47.5282 251.926 49.245 250.988 50.7166C250.06 52.1882 248.759 53.3357 247.086 54.1591C245.413 54.9737 243.464 55.381 241.239 55.381C239.005 55.381 237.052 54.9737 235.379 54.1591C233.706 53.3357 232.405 52.1882 231.477 50.7166C230.548 49.245 230.084 47.5282 230.084 45.5661V28.0909H235.773V45.0799C235.773 46.1048 235.997 47.0157 236.443 47.8129C236.899 48.61 237.538 49.2363 238.362 49.6918C239.185 50.1473 240.144 50.375 241.239 50.375C242.343 50.375 243.302 50.1473 244.117 49.6918C244.94 49.2363 245.575 48.61 246.022 47.8129C246.477 47.0157 246.705 46.1048 246.705 45.0799V28.0909ZM256.786 55V51.6232L270.214 32.7816H256.76V28.0909H277.362V31.4677L263.921 50.3093H277.388V55H256.786ZM286.392 55H280.295L289.585 28.0909H296.916L306.193 55H300.096L293.356 34.2401H293.146L286.392 55ZM286.011 44.4229H300.411V48.864H286.011V44.4229Z" fill="#1F1F22"/>
</svg>
