<svg width="375" height="41" viewBox="0 0 375 41" fill="none" xmlns="http://www.w3.org/2000/svg">
<path d="M0.324219 27.5515V22.9265L18.8242 14.7802V20.1016L6.15803 25.1864L6.32884 24.9105V25.5675L6.15803 25.2915L18.8242 30.3764V35.6978L0.324219 27.5515ZM43.9727 27.5515L25.4727 35.6978V30.3764L38.1389 25.2915L37.968 25.5675V24.9105L38.1389 25.1864L25.4727 20.1016V14.7802L43.9727 22.9265V27.5515ZM315.98 27.5515V22.9265L334.48 14.7802V20.1016L321.814 25.1864L321.985 24.9105V25.5675L321.814 25.2915L334.48 30.3764V35.6978L315.98 27.5515ZM351.759 7.82954L343.087 40.0469H338.265L346.936 7.82954H351.759ZM374.046 27.5515L355.546 35.6978V30.3764L368.212 25.2915L368.041 25.5675V24.9105L368.212 25.1864L355.546 20.1016V14.7802L374.046 22.9265V27.5515Z" fill="#F7F7F7"/>
<path d="M68.9733 9.09091H74.5969V27.8537C74.5969 29.5881 74.2071 31.0947 73.4275 32.3736C72.6566 33.6525 71.5836 34.6379 70.2084 35.3299C68.8331 36.0219 67.2345 36.3679 65.4126 36.3679C63.7921 36.3679 62.3205 36.0832 60.9978 35.5138C59.6839 34.9357 58.6415 34.0598 57.8706 32.886C57.0998 31.7035 56.7188 30.2187 56.7275 28.4318H62.3905C62.4081 29.1413 62.5526 29.7501 62.8241 30.2582C63.1044 30.7575 63.4855 31.1429 63.9672 31.4144C64.4578 31.6772 65.0359 31.8086 65.7016 31.8086C66.4024 31.8086 66.9936 31.6597 67.4754 31.3619C67.9659 31.0553 68.3382 30.6085 68.5922 30.0217C68.8463 29.4348 68.9733 28.7121 68.9733 27.8537V9.09091ZM95.9218 9.09091H101.611V26.5661C101.611 28.5282 101.142 30.245 100.205 31.7166C99.2767 33.1882 97.9759 34.3357 96.3028 35.1591C94.6298 35.9737 92.6808 36.381 90.4559 36.381C88.2222 36.381 86.2689 35.9737 84.5958 35.1591C82.9227 34.3357 81.622 33.1882 80.6934 31.7166C79.7649 30.245 79.3007 28.5282 79.3007 26.5661V9.09091H84.99V26.0799C84.99 27.1048 85.2133 28.0157 85.6601 28.8129C86.1156 29.61 86.755 30.2363 87.5784 30.6918C88.4018 31.1473 89.3609 31.375 90.4559 31.375C91.5596 31.375 92.5187 31.1473 93.3334 30.6918C94.1568 30.2363 94.7918 29.61 95.2385 28.8129C95.694 28.0157 95.9218 27.1048 95.9218 26.0799V9.09091ZM88.4456 6.48935L91.2311 0.511008H96.4079L92.4005 6.48935H88.4456ZM106.292 36V9.09091H111.981V31.3093H123.517V36H106.292ZM132.974 9.09091V36H127.285V9.09091H132.974ZM142.293 36H136.197L145.486 9.09091H152.818L162.094 36H155.998L149.257 15.2401H149.047L142.293 36ZM141.912 25.4229H156.313V29.864H141.912V25.4229ZM188.494 16.8299C188.389 15.77 187.938 14.9466 187.141 14.3597C186.344 13.7728 185.262 13.4794 183.895 13.4794C182.967 13.4794 182.183 13.6108 181.543 13.8736C180.904 14.1276 180.413 14.4824 180.072 14.9379C179.739 15.3933 179.573 15.9102 179.573 16.4883C179.555 16.9701 179.656 17.3905 179.875 17.7496C180.102 18.1088 180.413 18.4197 180.808 18.6825C181.202 18.9366 181.657 19.1599 182.174 19.3526C182.691 19.5366 183.243 19.6942 183.83 19.8256L186.247 20.4038C187.421 20.6665 188.498 21.0169 189.479 21.4549C190.461 21.8929 191.31 22.4316 192.028 23.071C192.747 23.7105 193.303 24.4638 193.697 25.331C194.1 26.1982 194.306 27.1924 194.315 28.3136C194.306 29.9603 193.886 31.3881 193.053 32.5969C192.23 33.797 191.039 34.7299 189.479 35.3956C187.929 36.0526 186.059 36.381 183.869 36.381C181.697 36.381 179.805 36.0482 178.193 35.3825C176.59 34.7167 175.337 33.7313 174.435 32.4261C173.542 31.1122 173.073 29.4873 173.029 27.5515H178.535C178.596 28.4537 178.854 29.207 179.31 29.8114C179.774 30.4071 180.392 30.8582 181.162 31.1648C181.942 31.4626 182.822 31.6115 183.803 31.6115C184.767 31.6115 185.603 31.4714 186.313 31.1911C187.031 30.9107 187.587 30.521 187.982 30.0217C188.376 29.5224 188.573 28.9486 188.573 28.3004C188.573 27.696 188.393 27.188 188.034 26.7763C187.684 26.3646 187.167 26.0142 186.484 25.7251C185.809 25.4361 184.982 25.1733 184 24.9368L181.07 24.201C178.802 23.6491 177.01 22.7863 175.696 21.6126C174.383 20.4388 173.73 18.8577 173.739 16.8693C173.73 15.2401 174.164 13.8166 175.04 12.5991C175.924 11.3815 177.137 10.4311 178.679 9.74787C180.221 9.06463 181.973 8.72301 183.935 8.72301C185.932 8.72301 187.675 9.06463 189.164 9.74787C190.662 10.4311 191.827 11.3815 192.659 12.5991C193.491 13.8166 193.921 15.2269 193.947 16.8299H188.494ZM222.869 22.5455C222.869 25.4799 222.313 27.9763 221.201 30.0348C220.097 32.0933 218.59 33.6656 216.681 34.7518C214.78 35.8292 212.643 36.3679 210.269 36.3679C207.878 36.3679 205.732 35.8248 203.831 34.7386C201.93 33.6525 200.428 32.0801 199.324 30.0217C198.22 27.9632 197.669 25.4711 197.669 22.5455C197.669 19.611 198.22 17.1146 199.324 15.0561C200.428 12.9976 201.93 11.4297 203.831 10.3523C205.732 9.2661 207.878 8.72301 210.269 8.72301C212.643 8.72301 214.78 9.2661 216.681 10.3523C218.59 11.4297 220.097 12.9976 221.201 15.0561C222.313 17.1146 222.869 19.611 222.869 22.5455ZM217.101 22.5455C217.101 20.6446 216.817 19.0417 216.247 17.7365C215.687 16.4313 214.894 15.4415 213.869 14.767C212.844 14.0926 211.644 13.7553 210.269 13.7553C208.894 13.7553 207.694 14.0926 206.669 14.767C205.644 15.4415 204.847 16.4313 204.278 17.7365C203.717 19.0417 203.437 20.6446 203.437 22.5455C203.437 24.4463 203.717 26.0492 204.278 27.3544C204.847 28.6596 205.644 29.6494 206.669 30.3239C207.694 30.9983 208.894 31.3356 210.269 31.3356C211.644 31.3356 212.844 30.9983 213.869 30.3239C214.894 29.6494 215.687 28.6596 216.247 27.3544C216.817 26.0492 217.101 24.4463 217.101 22.5455ZM243.705 9.09091H249.394V26.5661C249.394 28.5282 248.926 30.245 247.988 31.7166C247.06 33.1882 245.759 34.3357 244.086 35.1591C242.413 35.9737 240.464 36.381 238.239 36.381C236.005 36.381 234.052 35.9737 232.379 35.1591C230.706 34.3357 229.405 33.1882 228.477 31.7166C227.548 30.245 227.084 28.5282 227.084 26.5661V9.09091H232.773V26.0799C232.773 27.1048 232.997 28.0157 233.443 28.8129C233.899 29.61 234.538 30.2363 235.362 30.6918C236.185 31.1473 237.144 31.375 238.239 31.375C239.343 31.375 240.302 31.1473 241.117 30.6918C241.94 30.2363 242.575 29.61 243.022 28.8129C243.477 28.0157 243.705 27.1048 243.705 26.0799V9.09091ZM253.786 36V32.6232L267.214 13.7816H253.76V9.09091H274.362V12.4677L260.921 31.3093H274.388V36H253.786ZM283.392 36H277.295L286.585 9.09091H293.916L303.193 36H297.096L290.356 15.2401H290.146L283.392 36ZM283.011 25.4229H297.411V29.864H283.011V25.4229Z" fill="#E44444"/>
</svg>
